<?xml version="1.0" encoding="UTF-8" standalone="no"?>
<svg
   width="2398.8591pt"
   height="1250pt"
   viewBox="0 0 342.69416 178.57143"
   version="1.1"
   id="svg14785"
   sodipodi:docname="semitransparent.svg"
   inkscape:version="1.2.2 (b0a8486541, 2022-12-01)"
   xmlns:inkscape="http://www.inkscape.org/namespaces/inkscape"
   xmlns:sodipodi="http://sodipodi.sourceforge.net/DTD/sodipodi-0.dtd"
   xmlns="http://www.w3.org/2000/svg"
   xmlns:svg="http://www.w3.org/2000/svg"
   xmlns:rdf="http://www.w3.org/1999/02/22-rdf-syntax-ns#"
   xmlns:cc="http://creativecommons.org/ns#"
   xmlns:dc="http://purl.org/dc/elements/1.1/">
  <sodipodi:namedview
     id="namedview14787"
     pagecolor="#ffffff"
     bordercolor="#666666"
     borderopacity="1.0"
     inkscape:showpageshadow="2"
     inkscape:pageopacity="0.0"
     inkscape:pagecheckerboard="0"
     inkscape:deskcolor="#d1d1d1"
     inkscape:document-units="pt"
     showgrid="false"
     inkscape:zoom="0.80457234"
     inkscape:cx="1244.7607"
     inkscape:cy="956.40872"
     inkscape:window-width="3840"
     inkscape:window-height="2133"
     inkscape:window-x="0"
     inkscape:window-y="27"
     inkscape:window-maximized="1"
     inkscape:current-layer="layer2" />
  <metadata
     id="metadata14763">
    <rdf:RDF>
      <cc:Work>
        <dc:type
           rdf:resource="http://purl.org/dc/dcmitype/StillImage" />
        <dc:date>2023-03-13T21:54:31.869252</dc:date>
        <dc:format>image/svg+xml</dc:format>
        <dc:creator>
          <cc:Agent>
            <dc:title>Matplotlib v3.5.1, https://matplotlib.org/</dc:title>
          </cc:Agent>
        </dc:creator>
      </cc:Work>
    </rdf:RDF>
  </metadata>
  <defs
     id="defs14767">
    <style
       type="text/css"
       id="style14765">*{stroke-linejoin: round; stroke-linecap: butt}</style>
    <clipPath
       id="pf0419483b7-3">
      <rect
         x="7.1999998"
         y="7.1999998"
         width="328.29419"
         height="332.64001"
         id="rect14780-6" />
    </clipPath>
    <clipPath
       id="clipPath17837">
      <rect
         x="7.1999998"
         y="7.1999998"
         width="328.29419"
         height="332.64001"
         id="rect17835" />
    </clipPath>
    <clipPath
       id="pf0419483b7-3-7">
      <rect
         x="7.1999998"
         y="7.1999998"
         width="328.29419"
         height="332.64001"
         id="rect14780-6-5" />
    </clipPath>
    <clipPath
       id="clipPath17928">
      <rect
         x="7.1999998"
         y="7.1999998"
         width="328.29419"
         height="332.64001"
         id="rect17926" />
    </clipPath>
  </defs>
  <defs
     id="defs14783">
    <clipPath
       id="pf0419483b7">
      <rect
         x="7.1999998"
         y="7.1999998"
         width="328.29419"
         height="332.64001"
         id="rect14780" />
    </clipPath>
  </defs>
  <g
     inkscape:groupmode="layer"
     id="layer2"
     inkscape:label="Layer 1"
     style="display:inline;opacity:0.20000005">
    <g
       id="figure_1-3"
       style="display:inline;stroke-linecap:butt;stroke-linejoin:round">
      <g
         id="patch_1-5"
         style="stroke-linecap:butt;stroke-linejoin:round">
        <path
           d="M 0,347.04 H 342.69418 V 0 H 0 Z"
           style="fill:none;stroke-linecap:butt;stroke-linejoin:round"
           id="path14769-6" />
      </g>
      <g
         id="axes_1-2"
         style="stroke-linecap:butt;stroke-linejoin:round">
        <g
           id="line2d_1-9"
           style="stroke-linecap:butt;stroke-linejoin:round">
          <path
             d="m 215.673,174.93884 0.004,-0.88436 0.35484,-7.92023 1.28637,-10.22268 1.99523,-9.66206 4.21787,-14.60823 5.78923,-15.68589 7.63051,-17.477031 4.31716,-8.853239 2.0545,-3.942315 6.50749,-11.499794 6.11739,-9.695446 3.19186,-4.662987 3.81977,-5.158603 -1.15716,1.382582 -2.48658,2.830749 -2.08463,2.272209 -3.93514,4.109283 -6.93929,6.79374 -9.57061,8.584448 -6.55956,5.404338 -4.14322,3.245412 -6.93643,5.216394 -11.65372,8.17804 -12.73495,8.00021 -19.76224,9.95828 -8.38935,3.13626 -8.83227,2.53054 -9.0611,1.78214 -11.54795,1.17138 -11.06453,0.13672 -17.0853,-1.24696 -17.010814,-2.52078 -8.935225,-1.71323 -10.270799,-2.26304 -10.087295,-2.58485 -13.562215,-4.17853 -6.325086,-2.22992 -8.483627,-3.31735 -6.072938,-2.69341 -0.20774,-0.0987 2.133766,1.11745 4.437647,2.49214 3.593126,2.14187 8.303326,5.29916 11.105535,7.82515 7.970655,6.1897 6.928697,5.76128 9.584334,8.47926 15.140673,14.97504 10.28058,12.06344 9.66285,14.32195 2.23735,4.08125 3.62306,7.6755 3.1846,8.4422 2.46462,8.42484 1.84203,8.228 2.66939,18.99409 1.07813,17.00019 0.17881,7.02592 -0.0188,12.30293 -0.17816,5.84842 -0.28061,5.33281 -1.00723,11.69565 -0.8672,7.06714 -1.80043,11.00858 -0.93111,4.37412 0.63455,-2.33744 1.7517,-5.72256 1.79455,-5.28083 2.52632,-6.81777 6.35705,-15.00789 3.73551,-7.74468 4.07151,-7.84883 3.61419,-6.5949 9.69149,-16.10961 10.31847,-14.5762 13.27152,-14.7728 4.42908,-4.0024 6.00851,-4.78556 11.04507,-7.19024 8.69739,-4.53379 12.6127,-5.33607 17.85019,-5.88208 17.868,-4.613 4.94896,-1.10222 8.53295,-1.71638 7.57871,-1.27932 13.87655,-1.74955 9.82523,-0.77126 8.29209,-0.28207 1.84472,0.007 -2.12542,-0.0978 -3.77381,-0.26696 -4.38921,-0.41888 -10.53606,-1.36784 -11.3631,-1.98384 -12.9882,-2.92237 -10.70968,-2.88795 -13.74231,-4.24354 -12.84498,-4.62849 -4.88846,-1.9792 -5.0015,-2.17996 -5.10087,-2.41331 -9.44031,-5.10175 -3.78365,-2.33241 -3.75281,-2.51205 -3.69194,-2.69156 -7.96337,-6.69038 -6.79853,-6.86414 -4.8464,-5.65376 -5.3975,-7.11702 -10.96366,-17.269222 -8.07729,-15.152941 -5.21968,-10.916803 -4.32474,-9.906651 -1.78754,-4.452563 -3.85909,-10.553486 -2.87177,-8.945503 -1.47071,-5.122799 -1.84894,-7.423435 -0.22257,-1.047905 0.37096,2.152064 0.57224,3.907443 1.07915,9.983871 0.71291,11.241574 0.2199,9.267555 -0.0465,6.445965 -0.4553,11.645599 -0.91259,12.428445 -3.25085,24.000522 -3.04455,13.3253 -1.13267,3.9182 -3.81229,10.73383 -5.02151,10.60475 -6.10635,9.96437 -5.77742,7.74257 -8.61101,9.78056 -14.998182,14.26429 -12.63331,10.47507 -5.346771,4.14015 -5.112345,3.80822 -4.797819,3.41836 -6.245185,4.20666 -12.867563,7.86641 -8.170677,4.45326 -6.523533,3.17182 2.031672,-0.83073 3.82942,-1.45168 9.688826,-3.25398 10.403705,-2.99528 9.160912,-2.25419 6.133212,-1.30955 9.959791,-1.82218 6.197832,-0.9845 17.039036,-2.11005 17.407499,-1.03133 19.46391,0.82386 8.29941,1.22456 8.34615,1.88082 11.35138,3.71247 9.38355,4.10631 11.08466,5.99895 17.26381,11.46379 13.92969,10.76675 9.676,8.17838 4.26362,3.82145 3.82405,3.58043 7.91413,7.89934 7.76292,8.46342 3.82217,4.49565 3.87776,4.92604 -1.17681,-1.69612 -2.04232,-3.10118 -1.61087,-2.56114 -3.19717,-5.34415 -5.15374,-9.33703 -7.89023,-16.40316 -2.54241,-5.9794 -2.58337,-6.4187 -10.76227,-32.74409 -2.7635,-12.88561 -1.66004,-14.0508 -0.18664,-4.6981 0.2082,-9.06434 1.72285,-13.51711 2.12324,-9.33232 4.22196,-13.47378 7.05143,-17.3848 8.17649,-16.91064 5.21229,-9.703056 4.83305,-8.250332 6.34509,-9.871042 5.42092,-7.718403 4.22515,-5.575794 3.58862,-4.369066 -1.2855,1.394644 -3.27868,3.368329 -6.14313,5.872474 -12.48165,10.761014 -4.64663,3.668304 -5.2747,3.955505 -5.901,4.201457 -6.41046,4.360701 -16.79002,10.451875 -15.76595,8.30808 -18.50799,7.28992 -6.66808,1.85151 -6.86413,1.44976 -12.14617,1.45746 -10.41206,0.22163 -12.66281,-0.7927 -20.35733,-3.10915 -17.135307,-3.87523 -6.652729,-1.75342 -6.229735,-1.76904 -5.706869,-1.75576 -5.148524,-1.7121 -12.016768,-4.4712 -5.524586,-2.28757 -8.660745,-3.93909 -4.510229,-2.2978 1.873189,1.0911 2.997153,1.84261 2.976713,1.92011 6.316485,4.31428 8.402124,6.20212 12.835532,10.55645 4.00686,3.58852 9.648861,9.11767 10.256784,10.52462 8.37798,9.50754 8.409451,10.90358 7.90709,12.57958 4.56567,9.31775 3.67537,9.76628 2.70327,9.84538 2.17312,11.81914 1.65902,17.83183 0.32184,17.48484 -0.32037,11.85104 -0.37887,7.07548 -0.60452,7.70581 -0.72713,6.80011 -2.10928,14.16557 -1.96135,9.81423 -1.53493,6.22586 -0.22345,0.80167 0.75607,-2.35322 1.98387,-5.5603 2.04223,-5.21737 2.85246,-6.73616 7.04312,-14.71105 4.7172,-8.68162 6.00092,-10.18834 8.47932,-13.17369 7.24852,-10.13347 12.16594,-14.51453 5.13877,-5.16728 7.16332,-6.28447 7.82607,-5.75417 11.4924,-6.71274 9.0725,-4.1752 13.26257,-4.84104 17.9391,-4.94311 18.8725,-3.89268 9.86963,-1.6083 4.16866,-0.57561 6.18528,-0.72247 13.25291,-1.04236 9.66528,-0.32143 5.78318,0.0145 4.63856,0.17369 -1.61028,-0.14437 -4.25352,-0.49006 -6.6863,-0.98894 -6.31326,-1.12451 -15.2668,-3.40644 -7.58444,-2.0616 -5.43412,-1.63114 -5.21482,-1.66255 -11.02498,-3.80712 -24.15385,-10.07659 -13.19841,-7.08603 -13.32439,-9.17791 -3.18857,-2.63228 -6.07866,-5.6338 -9.54698,-10.86993 -5.56256,-7.71718 -8.31309,-13.71771 -7.77298,-15.338805 -6.99213,-15.969164 -2.7778,-7.011003 -1.35728,-3.628461 -2.03317,-5.775402 -3.6481,-11.69717 -1.82659,-6.718182 -2.40842,-10.452878 -0.83857,-4.621615 0.24687,1.958444 0.4015,3.986649 0.24327,3.094321 0.33354,5.840172 0.13427,18.645509 -1.08609,17.459183 -2.58419,21.023969 -4.38979,21.879493 -3.6461,12.31427 -1.29535,3.61435 -3.0176,7.33132 -3.60156,7.27368 -5.52593,9.09548 -7.31788,9.66966 -7.77405,8.51626 -13.412162,12.31997 -13.766544,10.86749 -10.37053,7.42964 -6.837127,4.59522 -6.596543,4.15817 -4.227759,2.5184 -8.232384,4.60055 -6.639326,3.42798 -8.812516,4.13155 -3.930096,1.63489 1.844853,-0.65663 3.812461,-1.24986 5.768031,-1.70599 5.14994,-1.37947 10.660119,-2.4869 11.152991,-2.09908 6.443211,-0.97807 7.006763,-0.90149 9.613474,-1.0087 16.773864,-1.08261 16.05744,-4.9e-4 17.66386,1.70429 7.96279,1.56252 7.98237,2.17741 11.14183,4.18439 9.36782,4.60414 10.70967,6.44088 16.73903,12.26478 13.62751,11.60669 8.04685,7.45699 6.94341,6.87659 9.7001,10.55112 7.19109,8.65505 3.70652,4.81943 3.55922,5.01239 -1.26081,-2.03038 -2.14182,-3.66369 -2.32086,-4.21649 -3.6505,-7.10876 -5.52752,-11.97144 -3.7613,-9.2218 -2.34863,-6.33419 -2.14082,-6.14487 -4.11867,-12.9994 -4.43501,-17.00794 -1.49399,-7.31253 -1.67344,-11.14117 -0.81345,-11.92738 0.17744,-9.02938 v 0"
             clip-path="url(#pf0419483b7-3-7)"
             style="fill:none;stroke:#ff7f0e;stroke-linecap:square;stroke-linejoin:round;stroke-opacity:0.2"
             id="path14772-1" />
        </g>
        <g
           id="line2d_2-2"
           style="stroke-linecap:butt;stroke-linejoin:round">
          <path
             d="m 198.10965,174.93884 0.0762,-0.0259 1.04749,-0.31677 1.26774,-0.60779 1.2982,-0.83615 1.43742,-1.1632 1.50983,-1.4964 1.5259,-1.82478 1.49533,-2.14221 1.42636,-2.44524 1.3257,-2.73246 1.1986,-3.0037 1.04926,-3.25912 0.88146,-3.49849 0.69943,-3.72081 0.50802,-3.92465 0.31228,-4.10898 0.11673,-4.27351 -0.0738,-4.4176 -0.32463,-5.45991 -0.55241,-5.59079 -0.86978,-6.61215 -1.61686,-10.27289 -2.36445,-13.97916 -0.40915,-1.084413 -0.34614,-0.463895 -0.43167,-0.252404 -0.5377,-0.04865 -0.6586,0.138108 -1.22922,0.505637 -2.6654,1.426676 -20.9204,11.936491 -5.6179,3.50465 -4.58791,3.10818 -4.31178,3.20338 -3.34864,2.7373 -3.10411,2.79091 -2.84289,2.83347 -2.56807,2.86162 -2.28316,2.872 -1.99251,2.86157 -1.69973,2.82761 -1.40768,2.76739 -1.11871,2.67776 -0.83584,2.55493 -0.56358,2.39458 -0.3089,2.19238 -0.0815,1.94426 0.14366,1.93757 0.36242,1.61835 0.41432,1.03832 -0.17936,-0.13436 -0.98579,-0.64213 -1.36894,-0.61769 -1.54408,-0.47746 -1.87863,-0.36807 -2.1754,-0.20634 -2.43337,-0.006 -2.65419,0.22085 -2.84044,0.4676 -2.99532,0.72817 -3.12189,0.99864 -3.22274,1.27599 -3.3,1.5569 -3.35546,1.83736 -3.3911,2.11246 -3.40939,2.37791 -3.41291,2.63 -4.08292,3.46329 -4.052899,3.75835 -4.670524,4.67873 -5.227928,5.57362 -13.226387,14.61459 -1.027756,1.45469 -0.236616,0.59343 -0.02398,0.52059 0.199813,0.46702 0.424222,0.43549 1.033717,0.64046 2.015632,0.91407 11.28501,4.55279 10.567732,4.19735 6.251714,2.27117 5.31375,1.72434 5.22742,1.46206 4.26461,0.99148 4.16101,0.77045 4.03853,0.54147 3.89658,0.30917 3.73453,0.0782 3.55246,-0.14625 3.35066,-0.35926 3.12902,-0.55674 2.88672,-0.73494 2.62266,-0.88958 2.33596,-1.01505 2.02696,-1.10395 1.69772,-1.1469 1.58165,-1.35132 1.08027,-1.20638 0.73319,-1.1339 0.16829,-0.31992 0.006,0.15583 0.0844,1.0664 0.32509,1.39157 0.5419,1.46452 0.83143,1.66924 1.14094,1.81057 1.4577,1.89632 1.77381,1.93461 2.08419,1.93261 2.38607,1.89652 2.67821,1.83134 2.95981,1.74117 3.22977,1.62964 3.48617,1.50067 3.72646,1.35873 3.94864,1.20844 4.15138,1.05421 4.33295,0.90059 5.4049,0.8864 5.5805,0.69457 6.64359,0.61275 10.36549,0.69906 14.028,0.77628 1.11044,-0.17654 0.50354,-0.25082 0.31741,-0.38399 0.14456,-0.53455 -0.0608,-1.10274 -0.46858,-2.01876 -1.88683,-6.33527 -5.97652,-19.55784 -2.2027,-6.21812 -2.04391,-5.11547 -2.19951,-4.85655 -1.95304,-3.81718 -2.05819,-3.58568 -2.15526,-3.33604 -2.24028,-3.07054 -2.30918,-2.79211 -2.35815,-2.50429 -2.3838,-2.20983 -2.38284,-1.91064 -2.35149,-1.60839 -2.28517,-1.30541 -2.17848,-1.0057 -2.02556,-0.71571 -2.15475,-0.50396 -1.75991,-0.17542 -1.42793,0.0698 -0.72171,0.1286 0.1884,-0.15739 0.86398,-0.84634 0.91209,-1.22119 0.80837,-1.41887 0.77239,-1.76819 0.67782,-2.09196 0.53807,-2.38624 0.36382,-2.65041 0.16334,-2.88526 -0.0573,-3.0927 -0.29369,-3.27484 -0.54228,-3.43353 -0.79939,-3.57005 -1.06062,-3.68527 -1.32075,-3.78002 -1.57511,-3.85581 -1.81947,-3.91432 -2.4845,-4.75205 -2.77686,-4.78707 -3.53552,-5.59206 -4.27915,-6.330935 -11.2557,-16.042083 -1.17599,-1.275267 -0.52178,-0.333375 -0.50067,-0.108397 -0.50105,0.121768 -0.52286,0.346202 -0.86391,0.904696 -1.35534,1.802725 -9.12997,13.131545 -5.3457,7.902291 -3.5211,5.59879 -2.76323,4.79176 -2.47012,4.75571 -1.80713,3.91654 -1.56262,3.85722 -1.30822,3.78059 -1.04819,3.68491 -0.7872,3.56876 -0.53048,3.4313 -0.28241,3.27164 -0.0467,3.08855 0.17321,2.88012 0.37276,2.64427 0.54587,2.37914 0.68421,2.08394 0.77707,1.75938 0.97093,1.64784 1.01672,1.25935 0.76973,0.70314 -0.25078,-0.052 -1.21702,-0.1461 -1.53434,0.0538 -1.62072,0.25912 -1.86977,0.50611 -2.06241,0.78259 -2.204,1.07568 -2.30068,1.37677 -2.35826,1.67996 -2.38194,1.98174 -2.37614,2.28 -2.34449,2.57313 -2.29028,2.85903 -2.21696,3.13476 -2.12843,3.3968 -2.02877,3.64241 -1.92195,3.86938 -2.16138,4.91202 -2.0066,5.16123 -2.162585,6.25519 -2.276686,7.2942 -5.498335,18.74933 -0.231041,1.33024 0.05803,0.9683 0.239083,0.4489 0.420116,0.30683 0.609399,0.18541 1.264189,0.10301 2.934658,-0.11034 22.950532,-1.59663 6.61045,-0.68314 5.524,-0.76891 5.32875,-0.96914 4.25737,-0.97277 4.06629,-1.1269 3.85492,-1.27961 3.62467,-1.42649 3.37701,-1.5631 3.1144,-1.68474 2.83914,-1.7872 2.55286,-1.86677 2.25642,-1.91969 1.9507,-1.94152 1.63747,-1.92677 1.32043,-1.86884 1.00573,-1.76008 0.80941,-1.88496 0.42557,-1.5287 0.15148,-1.38647 0.006,-0.22618 0.0901,0.16391 0.57181,0.96185 0.92924,1.12959 1.15246,1.09082 1.50187,1.14362 1.84086,1.1317 2.16182,1.06751 2.46137,0.96162 2.73821,0.82254 2.99266,0.65692 3.22577,0.46968 3.4386,0.26481 3.63169,0.0461 3.80497,-0.18208 3.95807,-0.4145 4.09128,-0.64617 4.20534,-0.87262 5.17044,-1.33129 5.27385,-1.61315 6.23217,-2.17752 7.12934,-2.75032 17.91258,-7.27692 1.82679,-0.89101 0.8608,-0.64275 0.2999,-0.45071 0.0744,-0.49416 -0.14457,-0.5585 -0.59009,-0.99303 -1.35645,-1.65212 -5.68338,-6.22469 -11.43112,-12.39824 -4.66963,-4.70278 -4.05411,-3.79033 -4.08594,-3.50275 -3.41712,-2.66709 -3.41551,-2.41784 -3.39959,-2.15453 -3.36673,-1.88094 -3.31446,-1.60119 -3.24073,-1.32017 -3.14373,-1.04211 -3.02145,-0.77041 -2.87139,-0.50809 -2.69053,-0.25886 -2.47571,-0.0279 -2.22418,0.1771 -1.93409,0.34605 -1.88453,0.56732 -1.53177,0.71796 -0.9725,0.67019 0.1144,-0.26065 0.41683,-1.18658 0.28291,-1.53094 0.0987,-1.65451 -0.0894,-1.94963 -0.31798,-2.19635 -0.57348,-2.39717 -0.84631,-2.5562 -1.12957,-2.67778 -1.4188,-2.76623 -1.71099,-2.82532 -2.00382,-2.85824 -2.29441,-2.86768 -2.57913,-2.85636 -2.85366,-2.82737 -3.11447,-2.78406 -3.35853,-2.7298 -4.32287,-3.19368 -4.59792,-3.09789 -5.62778,-3.49218 -7.43626,-4.300474 -16.13835,-8.99079 -1.22043,-0.492463 -0.93278,-0.122964 -0.47682,0.160064 -0.38115,0.369158 -0.3078,0.580358 -0.37405,1.247703 -0.54233,2.93599 -3.54241,22.804108 -0.79261,6.59423 -0.46671,5.55154 -0.2267,5.40357 0.0135,4.35964 0.20644,4.20648 0.40229,4.03323 0.59642,3.8403 0.78413,3.62818 0.96029,3.39821 1.12036,3.15173 1.26034,2.88942 1.37637,2.61128 1.4639,2.31722 1.51708,2.00775 1.52856,1.68517 1.4895,1.35387 1.64955,1.18706 1.38166,0.73572 1.2866,0.43685 0.19842,0.0533 -0.20057,0.0544 -1.09366,0.3597 -1.32328,0.67326 -1.32796,0.89849 -1.45333,1.22805 -1.51381,1.56111 -1.51987,1.88782 -1.48095,2.2027 -1.40504,2.50269 -1.29855,2.78671 -1.16649,3.05474 -1.01294,3.30691 -0.84171,3.54286 -0.65711,3.76152 -0.46416,3.96138 -0.26775,4.14167 -0.0725,4.3021 0.16195,5.34504 0.4126,5.50656 0.74945,6.56429 1.10569,7.56133 3.10881,18.98394 0.46837,1.93201 0.44637,0.9411 0.38388,0.36436 0.47909,0.15501 0.59251,-0.0421 1.1248,-0.38672 1.94467,-0.98632 8.94347,-5.07424 12.26862,-7.04003 5.64484,-3.49572 4.62522,-3.09983 4.3586,-3.19509 3.39317,-2.73122 3.15257,-2.78631 2.89455,-2.83101 2.62233,-2.86201 2.33919,-2.87593 2.04944,-2.86962 1.7569,-2.84034 1.46461,-2.78544 1.17491,-2.70183 0.89065,-2.5859 0.61592,-2.43341 0.35714,-2.24002 0.12337,-2.00158 -0.10637,-2.01948 -0.28938,-1.52693 -0.45805,-1.25925 -0.0765,-0.17896 0.17558,0.1303 0.97906,0.63703 1.36393,0.61489 1.54019,0.47557 1.875,0.36637 2.17202,0.20469 2.43012,0.005 2.651,-0.22267 2.83724,-0.46956 2.99202,-0.73025 3.11845,-1.00087 3.21911,-1.27833 3.29614,-1.55938 3.35134,-1.83998 3.38673,-2.11525 3.40472,-2.38089 3.40794,-2.6332 4.07658,-3.46748 4.04616,-3.76304 4.66232,-4.68509 5.21851,-5.58248 12.86366,-14.23391 1.19708,-1.55799 0.43703,-0.92714 0.0304,-0.52282 -0.19308,-0.46811 -0.41759,-0.43539 -1.0247,-0.63831 -2.00636,-0.90847 -10.42358,-4.18012 -11.42469,-4.52185 -6.25623,-2.26147 -5.31778,-1.71688 -5.23138,-1.45525 -4.26777,-0.98624 -4.16401,-0.76554 -4.04134,-0.53687 -3.89921,-0.30487 -3.73699,-0.0741 -3.55476,0.15008 -3.35282,0.36289 -3.13107,0.56017 -2.88871,0.73821 -2.62466,0.89269 -2.33802,1.01806 -2.02914,1.10691 -1.70006,1.14992 -1.58469,1.35521 -1.08345,1.21083 -0.73707,1.14103 -0.1706,0.32709 -0.007,-0.15155 -0.0844,-1.0581 -0.32429,-1.38594 -0.54102,-1.46031 -0.83058,-1.66537 -1.14017,-1.80689 -1.45708,-1.89275 -1.77331,-1.931 -2.08377,-1.92892 -2.38572,-1.89266 -2.67787,-1.8273 -2.95944,-1.73689 -3.22935,-1.62512 -3.48571,-1.49586 -3.72597,-1.3536 -3.9481,-1.20297 -4.15082,-1.04839 -4.3324,-0.89437 -5.40433,-0.8784 -5.58022,-0.68594 -6.64395,-0.60189 -10.36932,-0.68063 -14.060892,-0.75506 -1.119381,0.1741 -0.509339,0.24775 -0.322677,0.3799 -0.148976,0.52965 0.05619,1.09462 0.46639,2.008 1.893298,6.31663 6.009669,19.53996 2.212788,6.21599 2.05195,5.11415 2.207,4.85547 1.95887,3.8164 2.06365,3.58494 2.16038,3.33534 2.24509,3.06987 2.3137,2.79146 2.3624,2.50365 2.38783,2.20921 2.38667,1.91008 2.35518,1.60792 2.28876,1.30505 2.18209,1.00545 2.02925,0.71557 2.15948,0.50387 1.76512,0.17521 1.43464,-0.0707 0.73165,-0.13198 -0.18381,0.15469 -0.85777,0.84115 -0.90836,1.21714 -0.8057,1.41567 -0.76993,1.7652 -0.67542,2.08916 -0.53564,2.38358 -0.36128,2.64781 -0.16067,2.88267 0.0601,3.09003 0.29669,3.27204 0.54544,3.43056 0.80273,3.56688 1.06417,3.68188 1.32451,3.7764 1.57912,3.85194 1.82375,3.91021 2.49007,4.74682 2.78298,4.78157 3.54358,5.5855 4.28989,6.32378 11.30045,16.04517 1.1819,1.28534 0.52345,0.33955 0.50125,0.11497 0.50047,-0.11521 0.52119,-0.34003 0.85974,-0.89681 1.34784,-1.79547 8.55661,-12.35562 5.34758,-7.88869 3.55033,-5.60288 2.80109,-4.80068 2.51629,-4.76879 1.85009,-3.93058 1.60836,-3.87431 1.35585,-3.80102 1.09683,-3.70906 0.83581,-3.59685 0.57805,-3.46352 0.32808,-3.30819 0.0898,-3.12979 -0.13344,-2.9265 -0.33731,-2.69629 -0.51619,-2.43717 -0.66221,-2.14811 -0.76519,-1.82943 -0.97436,-1.73789 -0.91566,-1.21393 -0.97747,-0.92845 -0.0688,-0.0707 0.1656,0.0324 1.08406,0.15176 1.44596,-0.0177 1.55962,-0.21487 1.82071,-0.45393 2.02447,-0.72574 2.17587,-1.01641 2.28105,-1.31658 2.34593,-1.61982 2.37586,-1.92215 2.37545,-2.2213 2.34848,-2.51562 2.29825,-2.80319 2.22816,-3.08125 2.14203,-3.34631 2.04394,-3.59542 1.93787,-3.82637 2.18026,-4.86675 2.02373,-5.12472 2.17837,-6.22759 2.28769,-7.29057 5.47287,-18.61734 0.45715,-2.014 0.0523,-1.09768 -0.15009,-0.5306 -0.32275,-0.3797 -0.50857,-0.24628 -1.11715,-0.1694 -2.10538,0.0236 -7.49247,0.511 -18.61798,1.37816 -6.5695,0.75424 -5.46528,0.84128 -5.25336,1.04772 -4.18402,1.0402 -3.98458,1.19394 -3.76546,1.3445 -3.528,1.48751 -3.27397,1.6184 -3.00601,1.73256 -2.72617,1.82607 -2.43574,1.89524 -2.1355,1.93614 -1.82656,1.94396 -1.51135,1.91273 -1.19448,1.83549 -0.88326,1.70428 -0.67467,1.78427 -0.34338,1.57488 -0.0591,1.02924 -0.12584,-0.23447 -0.65259,-1.0472 -1.00663,-1.1665 -1.22014,-1.10392 -1.56853,-1.14296 -1.90452,-1.11973 -2.22153,-1.0464 -2.51665,-0.93314 -2.78897,-0.78815 -3.03903,-0.61767 -3.2679,-0.42643 -3.47664,-0.21826 -3.66561,0.003 -3.83472,0.23263 -3.9836,0.46555 -4.11275,0.69683 -4.22285,0.92199 -5.18622,1.3873 -5.28357,1.66348 -6.234447,2.22533 -7.996351,3.14129 -17.162424,7.06536 -1.173197,0.6507 -0.708695,0.65137 -0.193449,0.46863 0.03042,0.52179 0.242997,0.59417 0.718596,1.05562 1.931036,2.22901 15.608002,16.92639 4.666708,4.73004 4.054125,3.82788 4.088149,3.54971 3.42098,2.71148 3.42164,2.46577 3.40848,2.20516 3.37895,1.9335 3.33046,1.65474 3.26093,1.37375 3.1685,1.0949 3.05129,0.82184 2.90688,0.55751 2.73238,0.30544 2.52459,0.0705 2.28067,-0.14038 1.99855,-0.31749 1.97185,-0.54825 1.45334,-0.62367 1.16831,-0.74536 0.17665,-0.13299 -0.0742,0.17725 -0.39465,1.0556 -0.29961,1.43722 -0.12889,1.58568 0.049,1.89078 0.27072,2.14726 0.52179,2.35705 0.7919,2.52411 1.07364,2.65276 1.36205,2.74739 1.65394,2.8119 1.9469,2.84959 2.23828,2.86326 2.52461,2.85558 2.80156,2.82956 3.06549,2.7885 3.31329,2.73583 4.27489,3.20204 4.55898,3.10647 5.59811,3.5014 6.60467,3.84335 16.8584,9.41801 1.82935,0.86069 1.03364,0.26179 0.53554,-0.054 0.42906,-0.25761 0.34309,-0.46882 0.40387,-1.0911 0.44047,-2.10247 1.3069,-8.34421 2.52881,-16.67812 0.74869,-6.58379 0.42114,-5.53238 0.17648,-5.37695 -0.0573,-4.3325 -0.25086,-4.17516 -0.44639,-3.99785 -0.63932,-3.80092 -0.82485,-3.58497 -0.99789,-3.35153 -1.15402,-3.10176 -1.28932,-2.83626 -1.39989,-2.55494 -1.48092,-2.25777 -1.52634,-1.94554 -1.52848,-1.62092 -1.47825,-1.28882 -1.61857,-1.1111 -1.51338,-0.74154 -0.82015,-0.25985 v 0"
             clip-path="url(#pf0419483b7-3-7)"
             style="fill:none;stroke:#d62728;stroke-width:2;stroke-linecap:square;stroke-linejoin:round;stroke-opacity:0.2"
             id="path14775-7" />
        </g>
      </g>
    </g>
  </g>
</svg>
